# xmcd CD database file
#
# Track frame offsets:
#	150
#	19577
#	37602
#	57571
#	78875
#	97378
#	113514
#	131568
#	148219
#	165873
#	178649
#	199964
#
# Disc length: 2921 seconds
#
# Revision: 0
# Processed by: cddbd v1.5.2PL0 Copyright (c) Steve Scherf et al.
# Submitted via: CDex 1.51
#
DISCID=9a0b670c
DTITLE=Travis Collins - Travis Collins
DYEAR=2011
DGENRE=Country
TTITLE0=Small Town
TTITLE1=Patient Man
TTITLE2=Closer To Home
TTITLE3=Summer Love
TTITLE4=Rather Be Lucky
TTITLE5=That Aint Gonna Help
TTITLE6=Don't Give Up On Me Baby
TTITLE7=Somethin' To Me
TTITLE8=Wouldn't Be Me
TTITLE9=Hillbilly
TTITLE10=Fired Today
TTITLE11=When The Lights Go Down
EXTD=YEAR: 2011
EXTT0=
EXTT1=
EXTT2=
EXTT3=
EXTT4=
EXTT5=
EXTT6=
EXTT7=
EXTT8=
EXTT9=
EXTT10=
EXTT11=
PLAYORDER=
